<?xml version="1.0" encoding="UTF-8"?>
<svg id="BLACK" xmlns="http://www.w3.org/2000/svg" viewBox="0 0 626 626">
  <defs>
    <style>
      .cls-1 {
        fill: none;
        stroke: #ff9398;
        stroke-miterlimit: 10;
      }

      .cls-2 {
        fill: #ff9398;
        stroke-width: 0px;
      }
    </style>
  </defs>
  <g id="Elements-2" data-name="Elements">
    <path class="cls-1" d="m263.84,192.77c-12.11,47.53-55.21,82.68-106.51,82.68s-94.39-35.15-106.51-82.68"/>
    <path class="cls-1" d="m577.17,192.77c-12.11,47.53-55.21,82.68-106.51,82.68s-94.39-35.15-106.51-82.68"/>
    <path class="cls-2" d="m580.57,165.28c0-60.7-49.21-109.91-109.9-109.91s-109.91,49.21-109.91,109.91c0,9.49,1.2,18.69,3.46,27.47h59.79c-4.88,8.23-7.7,17.85-7.7,28.13,0,30.28,24.34,54.83,54.36,54.83s54.36-24.55,54.36-54.83c0-10.29-2.81-19.91-7.7-28.13h59.79c2.26-8.78,3.46-17.99,3.46-27.47Z"/>
    <polygon class="cls-2" points="377.59 376.77 313 312.17 248.41 376.77 377.59 376.77"/>
    <circle class="cls-2" cx="33.24" cy="323.65" r="11.87"/>
    <circle class="cls-2" cx="104.28" cy="402.47" r="11.87"/>
    <circle class="cls-2" cx="210.76" cy="344.47" r="11.87"/>
    <circle class="cls-2" cx="592.76" cy="324.34" r="11.87"/>
    <circle class="cls-2" cx="521.72" cy="403.16" r="11.87"/>
    <circle class="cls-2" cx="415.24" cy="345.16" r="11.87"/>
    <path class="cls-2" d="m267.24,165.28c0-60.7-49.21-109.91-109.9-109.91s-109.91,49.21-109.91,109.91c0,9.49,1.2,18.69,3.46,27.47h59.79c-4.88,8.23-7.7,17.85-7.7,28.13,0,30.28,24.34,54.83,54.36,54.83s54.36-24.55,54.36-54.83c0-10.29-2.81-19.91-7.7-28.13h59.79c2.26-8.78,3.46-17.99,3.46-27.47Z"/>
    <path class="cls-2" d="m313.21,480.45c-124.75,0-225.88,40.38-225.88,90.18h451.75c0-49.81-101.13-90.18-225.88-90.18Zm-71.19,86.16h-50.51v-25.26c0-13.95,11.31-25.26,25.26-25.26s25.26,11.31,25.26,25.26v25.26Zm193.75,0h-50.51v-25.26c0-13.95,11.31-25.26,25.26-25.26s25.26,11.31,25.26,25.26v25.26Z"/>
  </g>
</svg>