<?xml version="1.0" encoding="UTF-8"?><svg id="BLACK" xmlns="http://www.w3.org/2000/svg" viewBox="0 0 313 313"><defs><style>.cls-1{fill:#ff9398;}</style></defs><g id="Elements-2"><path class="cls-1" d="m219.34,156.5l3.81,44.86s0,0,0,0l1.66,19.46h0l2.02,23.5c-12.51,5.66-26.4,8.81-41.03,8.81-54.02,0-98-42.99-99.59-96.62H0v156.5h313v-156.5h-93.66Z"/><path class="cls-1" d="m112.97,153.49c0-40.65,35.66-73.6,79.64-73.6,6.86,0,13.97.99,20.32,2.5l-2.18-25.4c-7.97-2.05-16.33-3.15-24.94-3.15-55.03,0-99.64,44.61-99.64,99.64,0,1.01.02,2.01.05,3.01h26.83c-.04-1-.08-2-.08-3.01Z"/><path class="cls-1" d="m197.53,205.64c-34.01,0-61.9-21.61-64.81-49.14h-19.66c1.71,39.25,36.67,70.59,79.55,70.59,11.69,0,22.2-2.09,32.2-6.27l-1.66-19.46c-8.17,3.06-16.07,4.29-25.62,4.29Z"/><path class="cls-1" d="m214.42,99.82c-5.18-1.1-11.31-1.97-16.9-1.97-35.94,0-65.08,24.13-65.08,53.9,0,1.6.1,3.19.27,4.75h86.58l-4.87-56.68Z"/></g></svg>