<?xml version="1.0" encoding="UTF-8"?><svg id="BLACK" xmlns="http://www.w3.org/2000/svg" viewBox="0 0 313 313"><defs><style>.cls-1{fill:#ff9398;}</style></defs><g id="Elements-2"><polygon class="cls-1" points="156.11 0 156.11 123.01 192.05 100.72 239.98 130.45 283.89 157.76 192.32 148.16 156.11 158.35 156.11 162.5 192.66 152.22 285.7 161.97 227.43 212.28 156.11 212.28 156.11 313 312.61 313 312.61 0 156.11 0"/><polygon class="cls-1" points="155.91 162.55 119.16 152.22 26.52 162.32 84.39 212.28 155.91 212.28 156.11 212.28 156.11 162.5 155.91 162.55"/><polygon class="cls-1" points="156.01 123.07 119.91 100.72 71.98 130.45 27.19 158.23 119.5 148.16 155.91 158.4 156.11 158.35 156.11 123.01 156.01 123.07"/></g></svg>