<?xml version="1.0" encoding="UTF-8"?><svg id="BLACK" xmlns="http://www.w3.org/2000/svg" viewBox="0 0 1878 626"><g id="Elements-2"><path d="m1447.11,0v148.41c0,51.05-16.91,99.13-45.88,141.23,15.15-27.66,11.13-62.39-10.9-85.87h0c-31.8-33.88-86.62-30.25-113.68,7.53l-25.18,35.17v164.09c-.19.07-.32.12-.32.12-81.79-26.08-144.67-113.61-144.67-113.61-20.56-28.63-17.99-67.81,6.13-93.5h0c31.8-33.88,86.62-30.25,113.68,7.53l25.18,35.17V-.03h-625.18v246.3l25.18-35.17c27.06-37.78,81.88-41.42,113.68-7.53h0c24.12,25.7,26.69,64.88,6.13,93.5,0,0-62.88,87.53-144.67,113.61,0,0-.12-.05-.32-.12v-164.09l-25.18-35.17c-27.05-37.78-81.88-41.41-113.68-7.53h0c-22.04,23.48-26.05,58.21-10.9,85.87-28.98-42.1-45.88-90.19-45.88-141.23V.17h-117.3v175.48c0,165.74,130.03,307.2,312.94,362.91v-127.8c52.76,23.86,112.17,37.47,173,37.47v.1h54.58c6.38,0,11.55,5.18,11.55,11.56s-5.17,11.56-11.55,11.56h45.19c6.38,0,11.55,5.18,11.55,11.56s-5.17,11.56-11.55,11.56h17.84c6.38,0,11.55,5.18,11.55,11.56s-5.17,11.56-11.55,11.56h-7.74c6.38,0,11.55,5.17,11.55,11.56s-5.17,11.56-11.55,11.56h-31.88c6.38,0,11.56,5.17,11.56,11.56s-5.17,11.56-11.56,11.56h-77.99c-60.94,0-119.25-8.99-173-25.37v87.41h625.18v-87.41c-53.75,16.37-112.06,25.37-173,25.37h-77.99c-6.38,0-11.56-5.18-11.56-11.56s5.17-11.56,11.56-11.56h-31.88c-6.38,0-11.55-5.18-11.55-11.56s5.17-11.56,11.55-11.56h-7.74c-6.38,0-11.55-5.18-11.55-11.56s5.17-11.56,11.55-11.56h17.84c-6.38,0-11.55-5.17-11.55-11.56s5.17-11.56,11.55-11.56h45.19c-6.38,0-11.55-5.17-11.55-11.56s5.17-11.56,11.55-11.56h54.58v-.1c60.83,0,120.24-13.61,173-37.47v127.8c182.92-55.72,312.88-197.17,312.88-362.91V0h-117.24ZM481.3,297.07c-.11-.15-.21-.32-.32-.47.22.3.44.6.66.9-.11-.14-.23-.28-.34-.42Zm104.47,92.77c9.72,5.79,19.75,11.21,30.07,16.23-7.17-3.33-17.56-8.61-30.07-16.23Zm676.15,16.23c10.32-5.02,20.35-10.44,30.07-16.23-12.5,7.62-22.9,12.89-30.07,16.23Zm134.53-109c-.11.14-.23.28-.34.42.22-.3.45-.59.66-.9-.11.16-.21.32-.32.47Z"/><path d="m.34,157.09h35.98c16.33-21.46,38.26-37.08,62.84-46.79,37-14.61,78.37-14.61,115.36,0,24.58,9.71,46.5,25.33,62.84,46.79h35.98V.17H.34v156.92Z"/><path d="m156.84,193.92c-20.28,0-36.73-16.49-36.73-36.83H36.32c16.33,21.46,38.26,37.08,62.84,46.79,37,14.61,78.37,14.61,115.36,0,24.58-9.71,46.5-25.33,62.84-46.79h-83.79c0,20.34-16.44,36.83-36.73,36.83Z"/><path d="m156.84,120.26c-20.28,0-36.73,16.49-36.73,36.83h73.46c0-20.34-16.44-36.83-36.73-36.83Z"/><path d="m1761.66,469.44l24.17,72.33h-63.11v-72.33h-3.71v72.23h-63.05l24.14-72.23h-115.06v156.46h313v-156.46h-116.38Zm-9.14,97.34l-32.19,20.77-32.19-20.77-32.19-20.77h129.83l-33.27,20.77Z"/><polygon points="1753.65 445.14 1722.72 351.33 1722.72 469.44 1761.66 469.44 1753.65 445.14"/><polygon points="1719.01 351.43 1688.15 445.04 1680.1 469.44 1719.01 469.44 1719.01 351.43"/><polygon points="156.38 313.04 156.38 436.05 192.29 413.76 240.2 443.49 284.09 470.8 192.56 461.2 156.38 471.38 156.38 475.53 192.91 465.25 285.9 475.01 227.66 525.32 156.38 525.32 156.38 626.04 312.8 626.04 312.8 313.04 156.38 313.04"/><polygon points="156.18 475.59 119.45 465.26 26.86 475.36 84.7 525.32 156.18 525.32 156.38 525.32 156.38 475.53 156.18 475.59"/><polygon points="156.28 436.11 120.19 413.76 72.29 443.49 27.53 471.27 119.79 461.2 156.18 471.44 156.38 471.38 156.38 436.05 156.28 436.11"/><path d="m1658.03,156.55l-3.81,44.84s0,0,0,0l-1.66,19.46h0l-2.02,23.49c12.51,5.66,26.4,8.81,41.03,8.81,54.02,0,98-42.98,99.59-96.6h86.22v156.46h-313v-156.46h93.66Z"/><path d="m1764.41,153.54c0-40.64-35.66-73.58-79.64-73.58-6.86,0-13.97.99-20.32,2.5l2.18-25.39c7.97-2.05,16.33-3.15,24.94-3.15,55.03,0,99.64,44.6,99.64,99.61,0,1.01-.02,2.01-.05,3.01h-26.83c.04-1,.08-2,.08-3.01Z"/><path d="m1679.84,205.68c34.01,0,61.9-21.6,64.81-49.13h19.66c-1.71,39.24-36.67,70.57-79.55,70.57-11.69,0-22.2-2.08-32.2-6.27l1.66-19.46c8.17,3.06,16.07,4.28,25.62,4.28Z"/><path d="m1662.95,99.89c5.18-1.1,11.31-1.97,16.9-1.97,35.94,0,65.08,24.12,65.08,53.88,0,1.6-.1,3.18-.27,4.75h-86.58l4.87-56.66Z"/></g></svg>