<?xml version="1.0" encoding="UTF-8"?>
<svg id="BLACK" xmlns="http://www.w3.org/2000/svg" viewBox="0 0 313 156.5">
  <defs>
    <style>
      .cls-1, .cls-2 {
        stroke-width: 0px;
      }

      .cls-2 {
        fill: #ff9398;
      }
    </style>
  </defs>
  <g id="Elements-2" data-name="Elements">
    <path class="cls-1" d="m263.52,101.61c12.3-4.84,23.28-12.64,31.45-23.36-8.18-10.71-19.15-18.51-31.45-23.36-18.52-7.29-39.22-7.29-57.74,0-12.3,4.84-23.28,12.64-31.45,23.36,8.18,10.71,19.15,18.51,31.45,23.36,18.52,7.29,39.22,7.29,57.74,0Z"/>
    <circle class="cls-2" cx="227.57" cy="67.81" r="18.38"/>
    <path class="cls-1" d="m107.23,101.61c12.3-4.84,23.28-12.64,31.45-23.36-8.18-10.71-19.15-18.51-31.45-23.36-18.52-7.29-39.22-7.29-57.74,0-12.3,4.84-23.28,12.64-31.45,23.36,8.18,10.71,19.15,18.51,31.45,23.36,18.52,7.29,39.22,7.29,57.74,0Z"/>
    <circle class="cls-2" cx="72.47" cy="67.81" r="18.38"/>
  </g>
</svg>