<?xml version="1.0" encoding="UTF-8"?><svg id="BLACK" xmlns="http://www.w3.org/2000/svg" viewBox="0 0 313 313"><g id="Elements-2"><path d="m1.11,134.6c13.81,18.04,30.59,33.35,49.96,45.3s41.47,20.75,63.97,25.39c24.46,5.04,49.44,5.51,74.09,1.61,23.11-3.66,45.64-11.6,66.05-23.03,19.1-10.69,36.55-24.77,50.61-41.57,2.1-2.51,4.12-5.1,6.11-7.7,1.32-1.72,1.45-4.96.91-6.94-.57-2.09-2.19-4.35-4.14-5.38-2.09-1.1-4.62-1.66-6.94-.91s-3.87,2.17-5.38,4.14c-1.07,1.39,1.11-1.42.37-.47-.25.32-.5.64-.75.96-.4.51-.81,1.01-1.21,1.52-1.02,1.25-2.05,2.49-3.1,3.72-1.94,2.25-3.93,4.46-5.99,6.61-4.08,4.27-8.38,8.32-12.88,12.14-1.09.93-2.19,1.84-3.3,2.74-.56.45-1.11.89-1.68,1.34-.25.2-.51.39-.75.59,2.1-1.73.83-.64.31-.25-2.4,1.83-4.84,3.59-7.33,5.29-4.84,3.31-9.85,6.39-14.98,9.22-5.85,3.22-11.86,6.12-18.01,8.73l2.15-.91c-15.85,6.67-32.52,11.21-49.56,13.5l2.39-.32c-16.93,2.23-34.1,2.23-51.04,0l2.39.32c-17.04-2.29-33.71-6.83-49.56-13.5l2.15.91c-10.89-4.61-21.38-10.18-31.22-16.75-2.44-1.63-4.84-3.31-7.2-5.06-.57-.42-1.14-.85-1.71-1.29-.32-.24-.63-.48-.95-.72.06.05,1.82,1.42.69.53-1.25-.98-2.49-1.98-3.71-2.99-4.54-3.76-8.89-7.76-13.02-11.97-2.36-2.41-4.65-4.88-6.86-7.43-1.06-1.22-2.1-2.45-3.12-3.7-.51-.63-1.02-1.26-1.53-1.89-.25-.32-.5-.64-.75-.95-1.31-1.68,1.11,1.45.07.09-1.49-1.95-2.92-3.46-5.38-4.14-2.15-.59-5.02-.33-6.94.91s-3.61,3.08-4.14,5.38-.53,5.06.91,6.94h0Z"/><path d="m155.4,275.11c-2.49,0-4.5-2.01-4.5-4.5v-56.39c0-2.49,2.01-4.5,4.5-4.5s4.5,2.01,4.5,4.5v56.39c0,2.49-2.01,4.5-4.5,4.5Z"/><path d="m11.62,231.62c-.76,0-1.54-.19-2.25-.6-2.15-1.24-2.89-3.99-1.65-6.15l28.19-48.83c1.24-2.15,3.99-2.89,6.15-1.65,2.15,1.24,2.89,3.99,1.65,6.15l-28.19,48.83c-.83,1.44-2.35,2.25-3.9,2.25Z"/><path d="m80.1,263.57c-.39,0-.78-.05-1.17-.15-2.4-.64-3.83-3.11-3.18-5.51l14.59-54.47c.64-2.4,3.11-3.82,5.51-3.18,2.4.64,3.83,3.11,3.18,5.51l-14.59,54.47c-.54,2.01-2.36,3.34-4.34,3.34Z"/><path d="m302.13,231.24c-1.56,0-3.07-.81-3.9-2.25l-28.19-48.83c-1.24-2.15-.51-4.9,1.65-6.15,2.15-1.24,4.9-.5,6.15,1.65l28.19,48.83c1.24,2.15.51,4.9-1.65,6.15-.71.41-1.48.6-2.25.6Z"/><path d="m233.65,263.19c-1.99,0-3.81-1.33-4.34-3.34l-14.59-54.47c-.64-2.4.78-4.87,3.18-5.51,2.4-.64,4.87.78,5.51,3.18l14.59,54.47c.64,2.4-.78,4.87-3.18,5.51-.39.1-.78.15-1.17.15Z"/></g></svg>