<?xml version="1.0" encoding="UTF-8"?><svg id="PINK" xmlns="http://www.w3.org/2000/svg" viewBox="0 0 626 626"><defs><style>.cls-1{fill:none;stroke:#000;stroke-linecap:round;stroke-linejoin:round;stroke-width:18px;}</style></defs><g id="Elements-3"><path class="cls-1" d="m55.9,145.61s36.37-69.64,101.84-69.64,101.83,69.64,101.83,69.64"/><path class="cls-1" d="m369.23,146.13s36.4-70.15,101.88-70.15,101.8,70.15,101.8,70.15"/><circle cx="313.92" cy="277.2" r="32.1"/><path d="m507.26,522.16l-174.4,39.14c-12.13,2.72-24.71,2.72-36.83,0l-174.4-39.14c-38.4-8.62-65.69-42.71-65.69-82.06h0c0-53.89,49.97-93.88,102.55-82.05l137.02,30.81c12.13,2.73,24.7,2.73,36.83.02l138.13-30.94c52.56-11.77,102.48,28.21,102.48,82.07v.09c0,39.35-27.29,73.44-65.69,82.06Z"/></g></svg>