<?xml version="1.0" encoding="UTF-8"?>
<svg id="BLACK" xmlns="http://www.w3.org/2000/svg" viewBox="0 0 1252 626">
  <defs>
    <style>
      .cls-1 {
        stroke-width: 0px;
      }
    </style>
  </defs>
  <g id="Elements-2" data-name="Elements">
    <path class="cls-1" d="m1134.67,0v148.41c0,51.05-16.92,99.13-45.92,141.23,15.16-27.66,11.14-62.39-10.91-85.87h0c-31.82-33.88-86.69-30.25-113.77,7.53l-25.2,35.17v164.09c-.19.07-.32.12-.32.12-81.86-26.08-144.79-113.61-144.79-113.61-20.57-28.63-18-67.81,6.13-93.5h0c31.83-33.88,86.69-30.25,113.77,7.53l25.2,35.17V-.04H313.19v246.3l25.2-35.17c27.08-37.78,81.94-41.42,113.77-7.53h0c24.14,25.7,26.71,64.88,6.13,93.5,0,0-62.93,87.53-144.79,113.61,0,0-.12-.05-.32-.12v-164.09l-25.2-35.17c-27.08-37.78-81.94-41.41-113.77-7.53h0c-22.06,23.48-26.07,58.21-10.91,85.87-29-42.1-45.92-90.19-45.92-141.23V.16H0v175.48c0,165.74,130.13,307.2,313.19,362.91v-127.8c52.8,23.86,112.26,37.47,173.14,37.47v.1h54.63c6.39,0,11.56,5.18,11.56,11.56s-5.18,11.56-11.56,11.56h45.23c6.39,0,11.56,5.18,11.56,11.56s-5.18,11.56-11.56,11.56h17.85c6.39,0,11.56,5.18,11.56,11.56s-5.18,11.56-11.56,11.56h-7.75c6.39,0,11.56,5.17,11.56,11.56s-5.18,11.56-11.56,11.56h-31.9c6.39,0,11.56,5.17,11.56,11.56s-5.18,11.56-11.56,11.56h-78.05c-60.99,0-119.35-8.99-173.14-25.37v87.41h625.68v-87.41c-53.79,16.37-112.15,25.37-173.14,25.37h-78.05c-6.39,0-11.56-5.18-11.56-11.56s5.18-11.56,11.56-11.56h-31.9c-6.39,0-11.56-5.18-11.56-11.56s5.18-11.56,11.56-11.56h-7.75c-6.39,0-11.56-5.18-11.56-11.56s5.18-11.56,11.56-11.56h17.85c-6.39,0-11.56-5.17-11.56-11.56s5.18-11.56,11.56-11.56h45.23c-6.39,0-11.56-5.17-11.56-11.56s5.18-11.56,11.56-11.56h54.63v-.1c60.88,0,120.33-13.61,173.14-37.47v127.8c183.06-55.72,313.13-197.17,313.13-362.91V0h-117.33Z"/>
  </g>
</svg>