<?xml version="1.0" encoding="UTF-8"?><svg id="BLACK" xmlns="http://www.w3.org/2000/svg" viewBox="0 0 313 313"><g id="Elements-2"><path d="m0,0v156.5h94.44l4.92-57.92c5.19-1.1,11.41-1.99,17-1.99,35.94,0,65.08,24.13,65.08,53.9,0,2.04-.15,4.04-.41,6.02h19.75c.09-1.42.14-2.84.14-4.28,0-40.65-35.66-73.6-79.64-73.6-6.86,0-14.03,1.01-20.38,2.52l2.24-25.41c7.97-2.05,16.33-3.15,24.94-3.15,55.03,0,99.64,44.61,99.64,99.64,0,1.44-.04,2.86-.1,4.28h85.37V0H0Z"/><path d="m121.29,225.82c-11.69,0-22.21-2.09-32.21-6.27l-2.02,23.5c12.51,5.66,26.4,8.81,41.03,8.81,53.59,0,97.3-42.31,99.54-95.36h-26.85c-2.4,38.65-37.07,69.32-79.49,69.32Z"/><polygon points="90.74 200.09 94.46 156.5 94.44 156.5 90.74 200.09 90.74 200.09"/><path d="m90.75,200.09c8.17,3.06,16.07,4.29,25.62,4.29,33.48,0,61.05-20.94,64.66-47.88h-86.54l-3.74,43.59Z"/></g></svg>