<?xml version="1.0" encoding="UTF-8"?><svg id="BLACK" xmlns="http://www.w3.org/2000/svg" viewBox="0 0 313 313"><g id="Elements-2"><path d="m313,0H0v156.5h35.98c16.34-21.41,38.26-36.98,62.84-46.66,37-14.57,78.37-14.57,115.36,0,24.58,9.68,46.5,25.26,62.84,46.66h35.98V0Z"/><path d="m156.5,193.23c-20.28,0-36.73-16.44-36.73-36.73H35.98c16.34,21.41,38.26,36.98,62.84,46.66,36.99,14.57,78.37,14.57,115.36,0,24.58-9.68,46.5-25.26,62.84-46.66h0s-83.79,0-83.79,0c0,20.28-16.44,36.73-36.73,36.73Z"/><path d="m156.5,119.77c-20.28,0-36.73,16.44-36.73,36.73h73.46c0-20.28-16.44-36.73-36.73-36.73Z"/></g></svg>