<?xml version="1.0" encoding="UTF-8"?><svg id="BLACK" xmlns="http://www.w3.org/2000/svg" viewBox="0 0 313 313"><g id="Elements-2"><path d="m156.5,119.77c-20.28,0-36.73,16.44-36.73,36.73,0,10.14,4.11,19.32,10.76,25.97l51.94-51.94c-6.65-6.65-15.83-10.76-25.97-10.76Z"/><path d="m35.98,156.5c16.33-21.41,38.26-36.98,62.84-46.66,34.32-13.51,72.4-14.48,107.27-2.92L313,0H0v313l106.91-106.91c-2.72-.9-5.42-1.87-8.09-2.92-24.58-9.68-46.5-25.26-62.84-46.66Z"/><path d="m214.18,109.84c-2.68-1.05-5.38-2.02-8.09-2.92l-23.61,23.62c6.65,6.65,10.76,15.83,10.76,25.97,0,20.28-16.44,36.73-36.73,36.73-10.14,0-19.32-4.11-25.97-10.76l-23.61,23.62c34.86,11.56,72.95,10.59,107.27-2.92,24.58-9.68,46.5-25.26,62.84-46.66-16.34-21.41-38.26-36.98-62.84-46.66Z"/></g></svg>