<?xml version="1.0" encoding="UTF-8"?><svg id="BLACK" xmlns="http://www.w3.org/2000/svg" viewBox="0 0 313 313"><g id="Elements-2"><polygon points="156.55 0 156.55 123.01 192.49 100.72 240.42 130.45 284.33 157.76 192.76 148.16 156.55 158.35 156.55 162.5 193.1 152.22 286.14 161.97 227.87 212.28 156.55 212.28 156.55 313 313.05 313 313.05 0 156.55 0"/><polygon points="156.35 162.55 119.6 152.22 26.96 162.32 84.83 212.28 156.35 212.28 156.55 212.28 156.55 162.5 156.35 162.55"/><polygon points="156.45 123.07 120.35 100.72 72.42 130.45 27.63 158.23 119.94 148.16 156.35 158.4 156.55 158.35 156.55 123.01 156.45 123.07"/></g></svg>